# xmcd
#
# Track frame offsets: 
#        150
#        18525
#        53925
#        75225
#        95925
#        116550
#        142800
#        172875
#        193200
#        212700
#
# Disc length: 3081 seconds
#
# Revision: 0
# Processed by: cddbd v1.5.2PL0 Copyright (c) Steve Scherf et al.
# Submitted via: ExactAudioCopy v1.0b3
#
DISCID=850c070a
DTITLE=Randy, My Huyen - My Huyen and Randy 1
DYEAR=1993
DGENRE=
TTITLE0=Randy - Loi dang cho cuoc tinh
TTITLE1=Chuyen tinh nguoi dan ao
TTITLE2=My Huyen - Gio ve mien xuoi
TTITLE3=Ai cho toi tinh yeu
TTITLE4=Randy - Gian hon 2
TTITLE5=Pho dem
TTITLE6=Randy - Ngay xua anh noi
TTITLE7=Yeu nguoi nhu the do
TTITLE8=My Huyen - Mua bien
TTITLE9=Hon lo sa vao doi mat em
EXTD=
EXTT0=
EXTT1=
EXTT2=
EXTT3=
EXTT4=
EXTT5=
EXTT6=
EXTT7=
EXTT8=
EXTT9=
PLAYORDER=
